<svg xmlns="http://www.w3.org/2000/svg" width="69" height="23" viewBox="0 0 69 23">
  <g id="Group_19" data-name="Group 19" transform="translate(-318 -412)">
    <text id="לחצו_על" data-name="לחצו על" transform="translate(366 421)" fill="#3a3a3a" font-size="6" font-family="SegoeUI, Segoe UI"><tspan x="-10.45" y="0">לחצו על</tspan></text>
    <g id="Rectangle_99" data-name="Rectangle 99" transform="translate(348 413)" fill="none" stroke="#707070" stroke-width="0.5">
      <rect width="39" height="12" rx="2" stroke="none"/>
      <rect x="0.25" y="0.25" width="38.5" height="11.5" rx="1.75" fill="none"/>
    </g>
    <g id="Rectangle_100" data-name="Rectangle 100" transform="translate(355 426)" fill="none" stroke="#707070" stroke-width="0.5">
      <rect width="32" height="4" rx="1" stroke="none"/>
      <rect x="0.25" y="0.25" width="31.5" height="3.5" rx="0.75" fill="none"/>
    </g>
    <g id="Rectangle_101" data-name="Rectangle 101" transform="translate(355 431)" fill="none" stroke="#707070" stroke-width="0.5">
      <rect width="32" height="4" rx="1" stroke="none"/>
      <rect x="0.25" y="0.25" width="31.5" height="3.5" rx="0.75" fill="none"/>
    </g>
    <g id="Group_6" data-name="Group 6" transform="translate(84 -198)">
      <path id="Path_41" data-name="Path 41" d="M531.1,683.939l8.444-11.98,3.941,6.914,3.565-4.171,5.629,9.238Z" transform="translate(-293.951 -54.409)" fill="none" stroke="#707070" stroke-width="0.5"/>
      <g id="Ellipse_14" data-name="Ellipse 14" transform="translate(254 615)" fill="none" stroke="#707070" stroke-width="0.5">
        <circle cx="2.5" cy="2.5" r="2.5" stroke="none"/>
        <circle cx="2.5" cy="2.5" r="2.25" fill="none"/>
      </g>
      <g id="Rectangle_95" data-name="Rectangle 95" transform="translate(234 610)" fill="none" stroke="#707070" stroke-width="0.5">
        <rect width="27" height="23" rx="4" stroke="none"/>
        <rect x="0.25" y="0.25" width="26.5" height="22.5" rx="3.75" fill="none"/>
      </g>
    </g>
    <g id="Polygon_4" data-name="Polygon 4" transform="translate(382 421) rotate(180)" fill="#fff">
      <path d="M 3.065736532211304 2.5 L 0.9342632293701172 2.5 L 1.99999988079071 0.9013950228691101 L 3.065736532211304 2.5 Z" stroke="none"/>
      <path d="M 1.99999988079071 0 L 4 3 L -2.384185791015625e-07 3 L 1.99999988079071 0 Z" stroke="none" fill="#707070"/>
    </g>
  </g>
</svg>
