<svg id="Layer_1" data-name="Layer 1" xmlns="http://www.w3.org/2000/svg" xmlns:xlink="http://www.w3.org/1999/xlink" viewBox="0 0 357.29 228.59"><defs><style>.cls-1,.cls-10,.cls-11,.cls-19,.cls-5,.cls-6,.cls-8,.cls-9{fill:none;}.cls-2{fill:#465055;}.cls-3{fill:#007a82;}.cls-12,.cls-13,.cls-14,.cls-15,.cls-16,.cls-17,.cls-18,.cls-20,.cls-21,.cls-22,.cls-23,.cls-24,.cls-25,.cls-4{fill:#8a9ba5;}.cls-10,.cls-11,.cls-19,.cls-5,.cls-6{stroke:#8a9ba5;}.cls-5,.cls-6{stroke-linecap:round;stroke-linejoin:round;}.cls-19,.cls-5,.cls-6{stroke-width:0.75px;}.cls-5{stroke-dasharray:0 2.3;}.cls-7{clip-path:url(#clip-path);}.cls-8,.cls-9{stroke:#fff;}.cls-10,.cls-8{stroke-width:0.5px;}.cls-11,.cls-9{stroke-width:1.51px;}.cls-12{font-size:11.87px;}.cls-12,.cls-13,.cls-14,.cls-15,.cls-16,.cls-17,.cls-18,.cls-20,.cls-21,.cls-22,.cls-23,.cls-24,.cls-25{font-family:Times-Roman, Times Roman;}.cls-13{font-size:11.87px;}.cls-14{font-size:11.87px;}.cls-15{font-size:11.87px;}.cls-16{font-size:11.87px;}.cls-17{font-size:11.87px;}.cls-18{font-size:11.87px;}.cls-20{font-size:11.87px;}.cls-21{font-size:11.87px;}.cls-22{font-size:11.87px;}.cls-23{font-size:11.87px;}.cls-24{font-size:11.87px;}.cls-25{font-size:11.87px;}</style><clipPath id="clip-path" transform="translate(-142.3 -191.07)"><path class="cls-1" d="M410.93,270.41a40.44,40.44,0,1,0,43.81-36.76c-1.2-.11-2.39-.16-3.57-.16a40.44,40.44,0,0,0-40.24,36.92"/></clipPath></defs><rect class="cls-2" x="0.5" y="157.14" width="7.28" height="31.57"/><rect class="cls-2" x="15.64" y="157.14" width="7.28" height="24.27"/><polygon class="cls-2" points="46.69 157.14 36.21 157.14 36.21 149.79 29.12 149.79 29.12 162.04 39.41 162.04 33 181.41 40.14 181.41 46.69 161.95 46.69 157.14"/><rect class="cls-2" x="53.18" y="157.14" width="7.28" height="24.27"/><path class="cls-2" d="M230.32,355.93c.05-6-2.28-7.72-7.67-7.72H210.52v24.27h7.23V353.11h2.33c2.47,0,3,.83,3,3.19v16.18h7.23Z" transform="translate(-142.3 -191.07)"/><polygon class="cls-2" points="114.26 157.14 106.98 157.14 106.98 172.35 114.26 170.96 114.26 157.14"/><path class="cls-2" d="M277.18,372.48a37.4,37.4,0,0,1-1.41-11.79v-4.81c0-6.05-1.75-7.67-7.48-7.67h-5.14v4.9h2.62c1.7,0,3,.51,3,2.91v2.82a8.54,8.54,0,0,1-2.13,5,9.3,9.3,0,0,1-3.84,2.91v6.94c2.23-.19,3.11-1.25,4.13-2.91a28,28,0,0,0,1.89-4.72s.14.09.24,0c.15,1.06.54,4.67,1,6.43Z" transform="translate(-142.3 -191.07)"/><rect class="cls-2" x="141.42" y="157.14" width="7.28" height="24.27"/><polygon class="cls-2" points="172.47 157.14 161.99 157.14 161.99 149.79 154.9 149.79 154.9 162.04 165.19 162.04 158.78 181.41 165.92 181.41 172.47 161.95 172.47 157.14"/><rect class="cls-2" x="178.96" y="157.14" width="7.28" height="24.27"/><path class="cls-2" d="M346.49,372.48V354.87c0-5.78-1.17-6.66-6.26-6.66h-5v4.9h1.5c1.8,0,2.43.51,2.43,2.54v11.93h-3.93v4.9Z" transform="translate(-142.3 -191.07)"/><path class="cls-2" d="M368.66,358.47c0-8.73-2.19-10.26-9.17-10.26h-6.31v4.9h4.37c3.15,0,3.88,1.06,3.88,5.31v3.75c0,4.16-.88,5.41-3.88,5.41h-4.37v4.9h6.31c7,0,9.12-1.53,9.17-10.27Z" transform="translate(-142.3 -191.07)"/><path class="cls-2" d="M396.65,359.86c0-9.06-1.46-12.16-7.23-12.16a7.52,7.52,0,0,0-3.21.79l-.92,4.53c.2.27,1.12-.51,1.55-.51,2.43,0,2.58,2.82,2.58,7.26,0,5.91.29,9-3.25,9-3.35,0-3.35-3.05-3.35-6.47V348.21h-7.23v14.56c0,5.45,1.74,10.49,10,10.49s11.07-2.59,11.07-13.4" transform="translate(-142.3 -191.07)"/><rect class="cls-2" x="273.02" y="157.14" width="7.28" height="31.57"/><rect class="cls-2" x="287.68" y="157.14" width="7.28" height="24.27"/><path class="cls-2" d="M459.52,358.47c.05-8.73-2.18-10.26-9.17-10.26H444v4.9h4.37c3.15,0,3.88,1.06,3.88,5.31v3.75c0,4.16-.87,5.41-3.88,5.41H444v4.9h6.31c7,0,9.12-1.53,9.17-10.27Z" transform="translate(-142.3 -191.07)"/><path class="cls-2" d="M488.82,360c0-9.06-2.72-12.2-8.88-12.2-4.37,0-5.29,3.93-6,5.64h-.34a19.7,19.7,0,0,0-1.11-5.18h-7.28s3,7.3,2.71,9.75l-1.89,14.52h7l.68-7.63c.77-8.69,2.38-12.2,4.46-12.2s3.3,1,3.3,7.21c0,6.79-.29,8.46-3.3,8.46a2.22,2.22,0,0,1-1.45-.7h-.34v4.81a3.68,3.68,0,0,0,2.37.69c6.41,0,10-1.66,10-13.17" transform="translate(-142.3 -191.07)"/><polygon class="cls-2" points="3.07 221.51 3.07 209.29 11.5 209.29 11.5 221.51 14.57 221.51 14.57 194.76 11.5 194.76 11.5 206.32 3.07 206.32 3.07 194.76 0 194.76 0 221.51 3.07 221.51"/><path class="cls-2" d="M166.49,413c3.57,0,6.4-1.18,6.4-9.45,0-5.48-.56-10-6.4-10s-6.4,4.52-6.4,10c0,8.27,2.83,9.45,6.4,9.45m0-2.48c-2.83,0-3.53-2.19-3.53-8.26,0-5.11,1.43-6.23,3.53-6.23s3.53,1.12,3.53,6.23c0,6.07-.7,8.26-3.53,8.26" transform="translate(-142.3 -191.07)"/><rect class="cls-2" x="33.24" y="194.76" width="2.73" height="26.75"/><path class="cls-2" d="M187.33,413c3.56,0,6.4-1.18,6.4-9.45,0-5.48-.57-10-6.4-10s-6.41,4.52-6.41,10c0,8.27,2.84,9.45,6.41,9.45m0-2.48c-2.84,0-3.54-2.19-3.54-8.26,0-5.11,1.44-6.23,3.54-6.23s3.53,1.12,3.53,6.23c0,6.07-.7,8.26-3.53,8.26" transform="translate(-142.3 -191.07)"/><path class="cls-2" d="M208.32,412.58v-13c0-3.71-.9-6.12-4.5-6.12a4.37,4.37,0,0,0-4.5,2.78h-.14v-2.41h-2.9c.1,1.3.17,2.6.17,3.89v14.82h2.73V401.5c0-2.55.44-5.52,3.44-5.52,2.33,0,3,1.63,3,3.64v13Z" transform="translate(-142.3 -191.07)"/><rect class="cls-2" x="76.01" y="194.76" width="3.07" height="26.75"/><path class="cls-2" d="M236.47,412.58v-13c0-3.71-.9-6.12-4.5-6.12a4.39,4.39,0,0,0-4.51,2.78h-.13v-2.41h-2.9c.1,1.3.17,2.6.17,3.89v14.82h2.73V401.5c0-2.55.44-5.52,3.44-5.52,2.33,0,3,1.63,3,3.64v13Z" transform="translate(-142.3 -191.07)"/><path class="cls-2" d="M250.16,407.25c0-5.71-8.41-5.63-8.41-8.93a2.41,2.41,0,0,1,2.61-2.52c1.73,0,2.66,1,2.63,3h3c.24-3.7-2.33-5.3-5.33-5.3-4.74,0-5.8,3.15-5.8,5.11,0,5.6,8.4,5.67,8.4,9a2.66,2.66,0,0,1-2.9,2.85c-2.77,0-2.8-2.52-2.8-3.59h-3.1c-.1,4.29,2.16,6.07,5.8,6.07,3.33,0,5.87-1.59,5.87-5.7" transform="translate(-142.3 -191.07)"/><path class="cls-2" d="M251,393.87v2.3h2.76v13.3c0,2.15,1.17,3.33,3.77,3.33.9,0,1.8-.22,2.7-.29v-2.34c-.6.08-1,.15-1.23.15-2.5,0-2.5-1.52-2.5-2.7V396.17h3.67v-2.3h-3.67v-5l-2.74,1.37v3.59Z" transform="translate(-142.3 -191.07)"/><path class="cls-2" d="M261.92,389.09H265v-3.26h-3.07Zm2.9,4.78h-2.74v18.71h2.74Z" transform="translate(-142.3 -191.07)"/><path class="cls-2" d="M266.46,393.87v2.3h2.77v13.3c0,2.15,1.17,3.33,3.77,3.33.9,0,1.8-.22,2.7-.29v-2.34c-.6.08-1,.15-1.23.15-2.5,0-2.5-1.52-2.5-2.7V396.17h3.66v-2.3H272v-5l-2.74,1.37v3.59Z" transform="translate(-142.3 -191.07)"/><path class="cls-2" d="M286.58,406.28c0,3.12-1.83,4.34-3.3,4.34-1.93,0-2.87-1.52-2.87-3.78v-13h-2.73v14.27c0,3.18,1.6,4.81,4.53,4.81a4.74,4.74,0,0,0,4.27-2.63h.1v2.26h2.9c-.1-1.3-.16-2.59-.16-3.89V393.87h-2.74Z" transform="translate(-142.3 -191.07)"/><path class="cls-2" d="M291.17,393.87v2.3h2.77v13.3c0,2.15,1.16,3.33,3.76,3.33.9,0,1.8-.22,2.7-.29v-2.34c-.6.08-1,.15-1.23.15-2.5,0-2.5-1.52-2.5-2.7V396.17h3.67v-2.3h-3.67v-5l-2.73,1.37v3.59Z" transform="translate(-142.3 -191.07)"/><path class="cls-2" d="M313.75,404.21v-1.59c0-6.19-1.2-9.12-6-9.12-5.83,0-6.4,4.52-6.4,10,0,8.27,2.83,9.45,6.4,9.45s5.84-1.89,5.87-6h-3c-.1,1.89-1.07,3.56-2.94,3.56-2.13,0-3.4-1-3.4-6.26Zm-9.47-2.3c0-5.18,1.47-6.11,3.2-6.11,2,0,3.37.67,3.37,6.11Z" transform="translate(-142.3 -191.07)"/><path class="cls-2" d="M329.05,413c3.57,0,6.41-1.18,6.41-9.45,0-5.48-.57-10-6.41-10s-6.4,4.52-6.4,10c0,8.27,2.84,9.45,6.4,9.45m0-2.48c-2.83,0-3.53-2.19-3.53-8.26,0-5.11,1.43-6.23,3.53-6.23s3.54,1.12,3.54,6.23c0,6.07-.7,8.26-3.54,8.26" transform="translate(-142.3 -191.07)"/><path class="cls-2" d="M336.41,393.87v2.3H339v16.41h2.73V396.17h3.4v-2.3h-3.4v-3.18c0-1.52.5-2.89,3.4-2.67v-2.19a6.7,6.7,0,0,0-1.3-.11c-2.43,0-4.83.74-4.83,4.52v3.63Z" transform="translate(-142.3 -191.07)"/><polygon class="cls-2" points="210.37 194.76 210.37 197.73 216.7 197.73 216.7 221.51 219.77 221.51 219.77 197.73 226.1 197.73 226.1 194.76 210.37 194.76"/><path class="cls-2" d="M378.46,404.21v-1.59c0-6.19-1.2-9.12-6-9.12-5.83,0-6.4,4.52-6.4,10,0,8.27,2.83,9.45,6.4,9.45s5.84-1.89,5.87-6h-3c-.1,1.89-1.07,3.56-2.94,3.56-2.13,0-3.4-1-3.4-6.26Zm-9.47-2.3c0-5.18,1.47-6.11,3.2-6.11,2,0,3.37.67,3.37,6.11Z" transform="translate(-142.3 -191.07)"/><path class="cls-2" d="M392.69,399.87c.16-4.18-1.81-6.37-5.17-6.37-5.84,0-6.4,4.52-6.4,10,0,8.26,2.83,9.44,6.4,9.44,1.86,0,5.4-1.33,5.3-6.59H390c.1,3.37-1.8,4.11-2.43,4.11-2.84,0-3.54-2.19-3.54-8.26,0-5.11,1.44-6.23,3.54-6.23,1,0,2.4.82,2.33,3.89Z" transform="translate(-142.3 -191.07)"/><path class="cls-2" d="M407.64,412.58V399.32c0-4.23-1.6-5.82-4.47-5.82a4.35,4.35,0,0,0-4.56,2.78h-.14V385.83h-2.73v26.75h2.73v-11c0-3.15.7-5.6,3.44-5.6,2.33,0,3,1.63,3,3.93v12.67Z" transform="translate(-142.3 -191.07)"/><path class="cls-2" d="M423,412.58v-13c0-3.71-.9-6.12-4.5-6.12a4.37,4.37,0,0,0-4.5,2.78h-.13v-2.41H411c.1,1.3.17,2.6.17,3.89v14.82h2.74V401.5c0-2.55.43-5.52,3.43-5.52,2.33,0,3,1.63,3,3.64v13Z" transform="translate(-142.3 -191.07)"/><path class="cls-2" d="M432.49,413c3.56,0,6.4-1.18,6.4-9.45,0-5.48-.57-10-6.4-10s-6.41,4.52-6.41,10c0,8.27,2.84,9.45,6.41,9.45m0-2.48c-2.84,0-3.54-2.19-3.54-8.26,0-5.11,1.44-6.23,3.54-6.23s3.53,1.12,3.53,6.23c0,6.07-.7,8.26-3.53,8.26" transform="translate(-142.3 -191.07)"/><rect class="cls-2" x="298.9" y="194.76" width="2.73" height="26.75"/><path class="cls-2" d="M452.66,413c3.56,0,6.4-1.18,6.4-9.45,0-5.48-.57-10-6.4-10s-6.41,4.52-6.41,10c0,8.27,2.84,9.45,6.41,9.45m0-2.48c-2.84,0-3.54-2.19-3.54-8.26,0-5.11,1.44-6.23,3.54-6.23s3.53,1.12,3.53,6.23c0,6.07-.7,8.26-3.53,8.26" transform="translate(-142.3 -191.07)"/><path class="cls-2" d="M470.35,396.17h-.07a4,4,0,0,0-3.93-2.67c-1.37,0-5.27.56-5.27,9.15,0,5.56.9,9.93,5.47,9.93a4.15,4.15,0,0,0,3.7-2.33h.1v3.89c0,1.92-1,3.22-2.94,3.22a2.47,2.47,0,0,1-2.57-2.7h-3.06c-.24,3.44,2.3,5,5.1,5,3.7,0,6.2-1,6.2-5.19v-20.6h-2.73Zm.06,7c0,2.6.1,6.93-3.2,6.93-2,0-3.27-1.41-3.27-7.41,0-2.48.1-6.63,3.2-6.63,3.44,0,3.27,4.34,3.27,7.11" transform="translate(-142.3 -191.07)"/><polygon class="cls-2" points="335.56 202.8 332.4 202.8 338.1 221.51 336.2 228.59 339.03 228.59 346.67 202.8 343.7 202.8 339.66 218.03 339.6 218.03 335.56 202.8"/><path class="cls-3" d="M395.82,225a6.09,6.09,0,0,1,6.13,6.2v10.46a6.12,6.12,0,0,1-6.16,6.16H389.9a4.18,4.18,0,0,0-4.09,4.12v32a6.26,6.26,0,0,1-6.26,6.26H369.2a6.26,6.26,0,0,1-6.26-6.26V252a4.18,4.18,0,0,0-4.09-4.12H353a6.12,6.12,0,0,1-6.16-6.16V231.22a6.09,6.09,0,0,1,6.13-6.2Z" transform="translate(-142.3 -191.07)"/><path class="cls-3" d="M319.12,225h10.33a6.26,6.26,0,0,1,6.26,6.26v86.59a6.26,6.26,0,0,1-6.26,6.26H319.12a6.26,6.26,0,0,1-6.26-6.26V231.28a6.26,6.26,0,0,1,6.26-6.26" transform="translate(-142.3 -191.07)"/><path class="cls-3" d="M278.25,265.17a4,4,0,0,0-4.08-4.07H254.94a4,4,0,0,0-4,4v52.74a6.26,6.26,0,0,1-6.26,6.26H234.34a6.26,6.26,0,0,1-6.26-6.26V231.28a6.26,6.26,0,0,1,6.26-6.26h10.33a6.26,6.26,0,0,1,6.26,6.26V240a4,4,0,0,0,4,4.09h19.23a4,4,0,0,0,4.08-4.08v-42.7a6.26,6.26,0,0,1,6.26-6.26h10.33a6.26,6.26,0,0,1,6.26,6.26v86.59a6.29,6.29,0,0,1-6.3,6.26H284.47a6.22,6.22,0,0,1-6.22-6.26Z" transform="translate(-142.3 -191.07)"/><path class="cls-3" d="M319.07,191.11H329.4a6.27,6.27,0,0,1,6.26,6.28v10.29A6.27,6.27,0,0,1,329.4,214H319.07a6.27,6.27,0,0,1-6.26-6.28V197.39a6.27,6.27,0,0,1,6.26-6.28" transform="translate(-142.3 -191.07)"/><path class="cls-3" d="M369.16,301.31h10.33a6.27,6.27,0,0,1,6.26,6.28v10.29a6.27,6.27,0,0,1-6.26,6.28H369.16a6.27,6.27,0,0,1-6.26-6.28V307.59a6.27,6.27,0,0,1,6.26-6.28" transform="translate(-142.3 -191.07)"/><path class="cls-3" d="M284.46,301.31h10.32a6.27,6.27,0,0,1,6.26,6.28v10.29a6.27,6.27,0,0,1-6.26,6.28H284.46a6.27,6.27,0,0,1-6.26-6.28V307.59a6.27,6.27,0,0,1,6.26-6.28" transform="translate(-142.3 -191.07)"/><path class="cls-4" d="M467.83,289.64a2.86,2.86,0,0,0-1-.28,2.52,2.52,0,0,0-1.92.56,2.56,2.56,0,0,0-.88,1.8,2.06,2.06,0,0,0,.58,1.74,5.06,5.06,0,0,0,1.87.92,10.25,10.25,0,0,1,1.7.67,1.49,1.49,0,0,1,.59.58,1.24,1.24,0,0,1,.14.74,1.62,1.62,0,0,1-.65,1.19,2,2,0,0,1-1.44.38,2.74,2.74,0,0,1-1.85-1,3.79,3.79,0,0,1-.9-2.27l-.42,0-.29,3.33.42,0,.73-.74a3.41,3.41,0,0,0,2.23,1.06,2.77,2.77,0,0,0,2.09-.59,2.57,2.57,0,0,0,.95-1.86,2.21,2.21,0,0,0-.18-1.16,2.3,2.3,0,0,0-.8-.88,8.92,8.92,0,0,0-2-.81,5.86,5.86,0,0,1-1.35-.53,1.32,1.32,0,0,1-.63-1.3,1.47,1.47,0,0,1,.58-1.08,1.79,1.79,0,0,1,1.3-.35,2.35,2.35,0,0,1,1.56.81,4.19,4.19,0,0,1,.89,2.19l.38,0,.24-3.14-.43,0-.58.7a3.76,3.76,0,0,0-1-.73m-10.24,0a.36.36,0,0,1,.19-.31,2.11,2.11,0,0,1,.86,0,4.57,4.57,0,0,1,1.38.26,1.18,1.18,0,0,1,.53.59,2.27,2.27,0,0,1,.12,1.09,1.56,1.56,0,0,1-.7,1.33,2.88,2.88,0,0,1-1.63.24l-1-.09ZM455,289l.84.07a.67.67,0,0,1,.4.15.38.38,0,0,1,.1.34l-.6,6.87a.38.38,0,0,1-.15.29.6.6,0,0,1-.42.07l-.85-.07,0,.44,4,.35,0-.44-.83-.07a.75.75,0,0,1-.43-.15.41.41,0,0,1-.08-.31l.3-3.38.7.06a2.31,2.31,0,0,1,.94.28,1.3,1.3,0,0,1,.54.58,2.9,2.9,0,0,1,.18,1.12,10.29,10.29,0,0,0,.13,1.67,1.25,1.25,0,0,0,.42.67,1.16,1.16,0,0,0,.71.28c.9.08,1.44-.53,1.63-1.85l-.39,0a2.24,2.24,0,0,1-.27.92c-.12.16-.24.24-.36.23a.43.43,0,0,1-.31-.24,3.37,3.37,0,0,1-.28-1.07,6.76,6.76,0,0,0-.31-1.45,1.73,1.73,0,0,0-.45-.61,4.42,4.42,0,0,0-1.1-.54,5,5,0,0,0,1.7-.24,1.91,1.91,0,0,0,.87-.64,1.78,1.78,0,0,0,.37-1,1.91,1.91,0,0,0-.57-1.61,3.11,3.11,0,0,0-1.95-.76l-4.44-.39Zm-3.84,4.57-3-.27,1.88-3.69Zm-4.4,1.43a1.91,1.91,0,0,1-.61.79,1.36,1.36,0,0,1-.81.14l0,.44,3.12.27,0-.43-.29,0a1.29,1.29,0,0,1-.75-.27.6.6,0,0,1-.22-.51,2.49,2.49,0,0,1,.21-.65l.5-1,3.4.3.55,1.88a.86.86,0,0,1,0,.22.26.26,0,0,1-.17.23,1.59,1.59,0,0,1-.77.05l-.27,0,0,.44,3.43.3,0-.44-.27,0a.74.74,0,0,1-.72-.55l-2.4-8.13-.38,0Zm-8.47-7.46.7.06a.53.53,0,0,1,.37.14.43.43,0,0,1,.1.35l-.6,6.81a.41.41,0,0,1-.17.33.75.75,0,0,1-.49.08l-.59-.05,0,.43,7.09.62.42-3.19-.42,0q-.57,2.73-2.73,2.55l-1.33-.12a.66.66,0,0,1-.41-.14.33.33,0,0,1-.1-.29l.3-3.42.67.06a1.28,1.28,0,0,1,1,.52,2.19,2.19,0,0,1,.28,1.45l.4,0,.35-4-.4,0a2,2,0,0,1-.51,1.26,1.17,1.17,0,0,1-1,.34l-.73-.06.26-3.06a.51.51,0,0,1,.14-.33.36.36,0,0,1,.32-.08l1.68.14a1.71,1.71,0,0,1,1.26.66,4,4,0,0,1,.57,2l.38,0,.1-2.91-6.82-.6Zm-9.23-.81a2.07,2.07,0,0,1,.77.19.93.93,0,0,1,.37.41l2.31,4.39-.24,2.64a.36.36,0,0,1-.16.3.71.71,0,0,1-.47.08l-.77-.07,0,.43,3.94.35,0-.44-.74-.06a.89.89,0,0,1-.49-.17.39.39,0,0,1-.09-.32l.24-2.71,2.3-3.46a1.87,1.87,0,0,1,.69-.69,1.76,1.76,0,0,1,.9-.12l0-.44-3.28-.28,0,.43.4,0a.8.8,0,0,1,.55.23.61.61,0,0,1,.15.5.8.8,0,0,1-.14.4l-1.82,2.75-1.89-3.57a.54.54,0,0,1-.05-.28.24.24,0,0,1,.17-.22,1.94,1.94,0,0,1,.69,0l.41,0,0-.44-3.76-.33Z" transform="translate(-142.3 -191.07)"/><path class="cls-5" d="M451.06,307.63a33.7,33.7,0,0,0,33.57-29.38" transform="translate(-142.3 -191.07)"/><path class="cls-5" d="M484.91,274.08a33.7,33.7,0,0,0-29.37-33.57" transform="translate(-142.3 -191.07)"/><path class="cls-5" d="M451.37,240.23a33.7,33.7,0,0,0-33.57,29.38" transform="translate(-142.3 -191.07)"/><path class="cls-5" d="M417.52,273.77a33.7,33.7,0,0,0,29.37,33.58" transform="translate(-142.3 -191.07)"/><path class="cls-6" d="M448.28,307.5h0M417.65,271h0m36.5-30.63h0m30.63,36.51h0" transform="translate(-142.3 -191.07)"/><g class="cls-7"><circle class="cls-8" cx="451.22" cy="273.93" r="41.96" transform="translate(-218.06 113.33) rotate(-34.57)"/><path class="cls-9" d="M447.77,313.3a39.52,39.52,0,1,0-35.93-42.82A39.57,39.57,0,0,0,447.77,313.3Z" transform="translate(-142.3 -191.07)"/></g><circle class="cls-10" cx="451.22" cy="273.93" r="41.96" transform="translate(-218.06 113.33) rotate(-34.57)"/><path class="cls-11" d="M447.77,313.3a39.52,39.52,0,1,0-35.93-42.82A39.57,39.57,0,0,0,447.77,313.3Z" transform="translate(-142.3 -191.07)"/><path class="cls-4" d="M469.21,259.33q1.4,3,.68,11.23-.7,8-2.72,10.88a4.67,4.67,0,0,1-4.45,2.17,4.88,4.88,0,0,1-4.1-3.13q-1.38-2.88-.66-11.11.74-8.4,2.53-10.94a4.87,4.87,0,0,1,4.59-2.3,5,5,0,0,1,4.13,3.2M458,257.52q-3.58,4.1-4.22,11.49-.69,7.77,2.34,12.19a8.44,8.44,0,0,0,6.45,3.87,8.78,8.78,0,0,0,7.48-3.28q3.3-3.63,4-11.1.69-8-2.36-12.28a8.69,8.69,0,0,0-6.58-3.81,8,8,0,0,0-7.07,2.92m-24.17,1.55-1,6.17a2.15,2.15,0,0,1-.4.45,2.71,2.71,0,0,0-1,1.76,1.2,1.2,0,0,0,.19.85.82.82,0,0,0,.65.35,1.15,1.15,0,0,0,1-.41,4.22,4.22,0,0,0,.7-1.93,10.76,10.76,0,0,1,2.66-1.17,7.12,7.12,0,0,1,2.58-.24,6.06,6.06,0,0,1,4.42,2.3q1.62,2.06,1.27,6.18-.41,4.51-2.28,6.38a6.15,6.15,0,0,1-5.11,1.58,7.82,7.82,0,0,1-2.88-.78,4.47,4.47,0,0,1-1.79-1.5,2.49,2.49,0,0,1-.51-1.54c0-.31.36-.56,1-.75a2.61,2.61,0,0,0,1.36-.73,2.48,2.48,0,0,0,.47-1.38,2.73,2.73,0,0,0-.54-2,2.42,2.42,0,0,0-1.76-.91,2.25,2.25,0,0,0-1.95.78,4.34,4.34,0,0,0-1,2.61,6.54,6.54,0,0,0,1.86,5.15,8.54,8.54,0,0,0,5.77,2.6,10.79,10.79,0,0,0,8-2.21,9.89,9.89,0,0,0,3.65-7.11,9.15,9.15,0,0,0-2.23-7,9.61,9.61,0,0,0-6.72-3.36,10.41,10.41,0,0,0-2.8.16,17,17,0,0,0-3.17.94l1.4-8a27.94,27.94,0,0,0,5.82,1.27,9.15,9.15,0,0,0,3.84-.39,6.63,6.63,0,0,0,2.76-1.7,3.65,3.65,0,0,0,1.12-1.87c0-.22,0-.33-.18-.34a1.29,1.29,0,0,0-.49.15,7.38,7.38,0,0,1-2.15.52,13.65,13.65,0,0,1-3,.05,41.25,41.25,0,0,1-8.62-2q-.31,3.47-.93,7.12" transform="translate(-142.3 -191.07)"/><text class="cls-12" transform="translate(288.97 41.41) rotate(-19.99) scale(1.03 1)">M</text><text class="cls-13" transform="matrix(1.02, -0.16, 0.15, 0.99, 299.24, 37.88)">o</text><text class="cls-14" transform="matrix(1.03, -0.06, 0.06, 1, 305.34, 36.93)">r</text><text class="cls-15" transform="matrix(1.03, 0.05, -0.04, 1, 309.41, 36.66)">e</text><text class="cls-16" transform="matrix(1.02, 0.15, -0.15, 0.99, 314.87, 36.99)"> </text><text class="cls-17" transform="matrix(1, 0.23, -0.22, 0.98, 317.83, 37.42)">t</text><text class="cls-17" transform="matrix(0.98, 0.33, -0.32, 0.95, 321.19, 38.11)">h</text><text class="cls-18" transform="translate(326.92 40.05) rotate(24.73) scale(1.03 1)">a</text><text class="cls-18" transform="matrix(0.87, 0.55, -0.53, 0.85, 331.83, 42.31)">n</text><path class="cls-19" d="M424.33,234.93a47.45,47.45,0,0,0-19.13,50.3" transform="translate(-142.3 -191.07)"/><text class="cls-13" transform="matrix(0.44, 0.93, -0.9, 0.43, 260.61, 102.74)">o</text><text class="cls-20" transform="matrix(0.53, 0.88, -0.86, 0.51, 263.31, 108.29)">f</text><text class="cls-21" transform="matrix(0.57, 0.86, -0.83, 0.55, 265.37, 111.79)"> </text><text class="cls-21" transform="matrix(0.67, 0.78, -0.76, 0.65, 266.59, 113.92)">A</text><text class="cls-22" transform="matrix(0.78, 0.68, -0.66, 0.75, 272.33, 120.54)">c</text><text class="cls-23" transform="translate(276.51 124.11) rotate(35.39) scale(1.03 1)">a</text><text class="cls-21" transform="matrix(0.91, 0.49, -0.47, 0.88, 280.85, 127.34)">d</text><text class="cls-13" transform="translate(286.24 130.25) rotate(22.39) scale(1.03 1)">e</text><text class="cls-23" transform="translate(291.22 132.41) rotate(13.65) scale(1.03 1)">m</text><text class="cls-12" transform="matrix(1.02, 0.12, -0.11, 0.99, 300.51, 134.56)">i</text><text class="cls-18" transform="translate(303.91 134.99) rotate(2.11) scale(1.03 1)">c</text><text class="cls-14" transform="matrix(1.03, -0.06, 0.06, 1, 309.3, 135.08)"> </text><text class="cls-15" transform="translate(312.38 135.05) rotate(-9.17) scale(1.03 1)">E</text><text class="cls-20" transform="matrix(0.98, -0.31, 0.3, 0.95, 319.78, 133.84)">x</text><text class="cls-18" transform="matrix(0.95, -0.4, 0.39, 0.92, 325.58, 131.97)">c</text><text class="cls-24" transform="translate(330.64 129.9) rotate(-29.79) scale(1.03 1)">e</text><text class="cls-21" transform="translate(335.24 127.16) rotate(-33.89) scale(1.03 1)">l</text><text class="cls-25" transform="matrix(0.81, -0.63, 0.62, 0.79, 338.08, 125.28)">l</text><text class="cls-18" transform="matrix(0.75, -0.71, 0.69, 0.72, 340.85, 123.15)">e</text><text class="cls-21" transform="matrix(0.67, -0.78, 0.76, 0.65, 344.78, 119.5)">n</text><text class="cls-15" transform="matrix(0.57, -0.86, 0.83, 0.56, 348.76, 114.78)">c</text><text class="cls-24" transform="translate(351.79 110.31) rotate(-61.88) scale(1.03 1)">e</text><path class="cls-19" d="M495.77,290.05a47.81,47.81,0,0,0,2.63-12,47.29,47.29,0,0,0-13.85-37.79" transform="translate(-142.3 -191.07)"/></svg>